<svg width="182" height="36" viewBox="0 0 182 36" fill="none" xmlns="http://www.w3.org/2000/svg">
<path d="M23.68 33.368C23.68 34.424 23.2 35 22.24 35H16.864C15.952 35 15.424 34.52 15.424 33.56V29.384C15.424 28.424 14.944 27.944 13.984 27.944H9.856C8.944 27.944 8.416 28.424 8.416 29.384V33.56C8.416 34.52 7.936 35 6.976 35H1.6C0.688 35 0.16 34.424 0.16 33.368V13.016C0.16 6.968 1.12 0.535997 11.92 0.535997C22.72 0.535997 23.68 6.968 23.68 13.016V33.368ZM15.424 13.016C15.424 10.712 15.088 9.56 11.92 9.56C8.752 9.56 8.416 10.712 8.416 13.016V18.248C8.416 19.16 8.944 19.688 9.856 19.688H13.984C14.944 19.64 15.424 19.16 15.424 18.2V13.016ZM26.2758 1.4H31.6518C32.6118 1.4 33.0918 1.88 33.0918 2.84V21.656C33.0918 25.352 33.3318 27.608 36.8838 27.608C40.4358 27.608 40.6758 25.352 40.6758 21.656V2.84C40.6758 1.88 41.2038 1.4 42.1158 1.4H47.4918C48.4518 1.4 48.9318 1.88 48.9318 2.84V24.2C48.9318 27.368 48.2598 35.864 36.8838 35.864C25.5078 35.864 24.8358 27.368 24.8358 24.2V2.84C24.8358 1.88 25.3638 1.4 26.2758 1.4ZM72.3963 1.4C73.3563 1.4 73.8363 1.88 73.8363 2.84V8.216C73.8363 9.128 73.3563 9.656 72.3963 9.656H60.3003C59.3883 9.656 58.8603 10.136 58.8603 11.096V12.632C58.8603 13.544 59.3883 14.072 60.3003 14.072H68.2203C69.1803 14.072 69.6603 14.552 69.6603 15.512V20.888C69.6603 21.8 69.1803 22.328 68.2203 22.328H60.3003C59.3883 22.328 58.8603 22.808 58.8603 23.768V33.56C58.8603 34.472 58.3803 35 57.4203 35H51.7563C50.8443 35 50.3163 34.472 50.3163 33.56V2.84C50.3163 1.88 50.8443 1.4 51.7563 1.4H72.3963ZM96.7341 12.2V24.2C96.7341 27.368 96.0621 35.864 84.6861 35.864C73.3101 35.864 72.6381 27.368 72.6381 24.2V12.2C72.6381 9.032 73.3101 0.535997 84.6861 0.535997C96.0621 0.535997 96.7341 9.032 96.7341 12.2ZM88.4781 21.656V14.744C88.4781 11.048 88.2381 8.792 84.6861 8.792C81.1341 8.792 80.8941 11.048 80.8941 14.744V21.656C80.8941 25.352 81.1341 27.608 84.6861 27.608C88.2381 27.608 88.4781 25.352 88.4781 21.656ZM118.144 22.952L123.232 32.408C123.904 33.656 123.136 35 121.648 35H116.176C115.696 35 115.264 34.76 115.072 34.328L110.08 24.68C109.984 24.536 109.84 24.44 109.696 24.44H107.776C106.912 24.44 106.288 25.064 106.288 25.928V33.512C106.288 34.376 105.664 35 104.8 35H99.4236C98.5596 35 97.9356 34.376 97.9356 33.512V2.888C97.9356 2.024 98.5596 1.4 99.4236 1.4H109.936C118.48 1.4 121.936 5.048 121.936 12.92C121.936 17.384 120.832 20.504 118.288 22.328C118.096 22.472 118.048 22.712 118.144 22.952ZM110.224 9.656H107.776C106.912 9.656 106.288 10.28 106.288 11.144V14.696C106.288 15.56 106.912 16.184 107.776 16.184H110.224C112.528 16.184 113.68 15.896 113.68 12.92C113.68 9.944 112.528 9.656 110.224 9.656ZM124.421 1.4H129.797C130.757 1.4 131.237 1.88 131.237 2.84V21.656C131.237 25.352 131.477 27.608 135.029 27.608C138.581 27.608 138.821 25.352 138.821 21.656V2.84C138.821 1.88 139.349 1.4 140.261 1.4H145.637C146.597 1.4 147.077 1.88 147.077 2.84V24.2C147.077 27.368 146.405 35.864 135.029 35.864C123.653 35.864 122.981 27.368 122.981 24.2V2.84C122.981 1.88 123.509 1.4 124.421 1.4ZM159.837 1.4C160.701 1.4 161.181 1.88 161.373 2.696L164.781 16.664C164.877 17.144 165.261 17.144 165.357 16.664L168.765 2.696C168.957 1.88 169.437 1.4 170.301 1.4H180.237C181.197 1.4 181.677 1.88 181.677 2.84V33.56C181.677 34.472 181.197 35 180.237 35H174.861C173.949 35 173.421 34.472 173.421 33.56V14.648C173.421 14.312 172.989 14.264 172.893 14.6L168.237 33.752C168.045 34.568 167.517 35 166.653 35H163.485C162.621 35 162.093 34.568 161.901 33.752L157.245 14.6C157.149 14.264 156.717 14.312 156.717 14.648V33.56C156.717 34.472 156.237 35 155.277 35H149.901C148.941 35 148.461 34.472 148.461 33.56V2.84C148.461 1.88 148.941 1.4 149.901 1.4H159.837Z" fill="#11171A"/>
</svg>
