<svg width="50" height="50" viewBox="0 0 50 50" fill="none" xmlns="http://www.w3.org/2000/svg">
<path d="M43.3594 24.9999C43.3594 25.3107 43.2359 25.6088 43.0161 25.8285C42.7964 26.0483 42.4983 26.1718 42.1875 26.1718H10.6417L22.7037 38.2339C22.8126 38.3426 22.899 38.4718 22.9579 38.614C23.0169 38.7562 23.0473 38.9087 23.0473 39.0626C23.0473 39.2165 23.017 39.369 22.9581 39.5112C22.8992 39.6534 22.8129 39.7827 22.704 39.8915C22.5952 40.0003 22.4659 40.0867 22.3237 40.1456C22.1815 40.2044 22.029 40.2347 21.8751 40.2347C21.7211 40.2346 21.5687 40.2042 21.4265 40.1453C21.2843 40.0863 21.1552 39.9999 21.0464 39.891L6.98388 25.8285C6.87505 25.7197 6.78873 25.5905 6.72983 25.4483C6.67094 25.3062 6.64062 25.1538 6.64062 24.9999C6.64062 24.846 6.67094 24.6936 6.72983 24.5515C6.78873 24.4093 6.87505 24.2802 6.98388 24.1714L21.0464 10.1088C21.1552 9.99993 21.2843 9.91352 21.4265 9.85454C21.5687 9.79557 21.7211 9.76519 21.8751 9.76514C22.029 9.76509 22.1815 9.79537 22.3237 9.85425C22.4659 9.91313 22.5952 9.99946 22.704 10.1083C22.8129 10.2172 22.8992 10.3464 22.9581 10.4886C23.017 10.6308 23.0473 10.7833 23.0473 10.9372C23.0473 11.0911 23.0169 11.2436 22.9579 11.3858C22.899 11.528 22.8126 11.6572 22.7037 11.766L10.6417 23.828H42.1875C42.4983 23.828 42.7964 23.9515 43.0161 24.1713C43.2359 24.391 43.3594 24.6891 43.3594 24.9999Z" fill="black"/>
<rect x="-0.5" y="0.5" width="13" height="1" rx="0.5" transform="matrix(-1 0 0 1 41 10)" fill="#BBBFCA" stroke="#BBBFCA"/>
<rect x="-0.5" y="0.5" width="13" height="1" rx="0.5" transform="matrix(-1 0 0 1 41 38)" fill="#BBBFCA" stroke="#BBBFCA"/>
</svg>
